<?xml version="1.0" encoding="UTF-8"?>
<svg width="200px" height="200px" viewBox="0 0 200 200" version="1.1" xmlns="http://www.w3.org/2000/svg" xmlns:xlink="http://www.w3.org/1999/xlink">
    <title>analytics</title>
    <g id="analytics" stroke="none" stroke-width="1" fill="none" fill-rule="evenodd">
        <g id="Group" transform="translate(23.000000, 55.000000)">
            <path d="M26.087318,11.1021205 C35.6320809,11.1021205 40.2714651,75.8132273 51.6061818,75.8132273 C62.9408985,75.8132273 67.0866127,48.6284522 77.1090958,48.2767261 C87.1315789,47.925 92.7725243,0.8 103.212364,0.8 C113.652203,0.8 114.49056,85.7833398 128.509511,85.7833398 C142.528463,85.7833398 141.471716,48.4801978 154,48.4801978 L154,74.7603365 C154,91.328879 140.568542,104.760336 124,104.760336 C123.986788,104.760336 123.973575,104.760328 123.960363,104.76031 L29.9603627,104.636113 C13.4073119,104.614243 1.62380206e-14,91.1892047 0,74.6361395 L0,74.2873199 L0,74.2873199 C8.94837682,74.2873199 16.542555,11.1021205 26.087318,11.1021205 Z" id="graph2" fill="#FFC8A7" fill-rule="nonzero" opacity="0.0700000003"></path>
            <path d="M0,75.1664526 C8.94837682,75.1664526 16.542555,11.2253653 26.087318,11.2253653 C35.6320809,11.2253653 40.2714651,76.7106145 51.6061818,76.7106145 C62.9408985,76.7106145 67.0866127,48.927847 77.1090958,48.8446927 C87.1315789,48.7615385 92.7725243,0.8 103.212364,0.8 C113.652203,0.8 114.49056,86.8 128.509511,86.8 C142.528463,86.8 141.471716,49.0505986 154,49.0505986" id="graph2" stroke="#0A62F0" stroke-width="1.5"></path>
            <path d="M0,64.5105948 C9.02368724,64.5105948 16.4624526,51.0307692 26.087318,51.0307692 C35.7121833,51.0307692 40.1767795,64.552809 51.6061818,64.552809 C63.035584,64.552809 67.6157597,26.8 77.240625,26.8 C86.8654903,26.8 92.6851295,46.1483146 103.212364,46.1483146 C113.739598,46.1483146 114.373003,68.8 128.509511,68.8 C142.64602,68.8 141.366838,27.0022472 154,27.0022472" id="graph1" stroke="#0A62F0" stroke-width="1.5" stroke-linecap="round" stroke-linejoin="round"></path>
            <circle id="Oval" fill="#0A62F0" cx="103.2" cy="46.4" r="7"></circle>
        </g>
    </g>
</svg>